<svg width="512" height="512" xmlns="http://www.w3.org/2000/svg" version="1.1">
 <title/>

 <g>
  <title>Layer 1</title>
  <rect stroke="null" rx="100" id="svg_3" height="505.99999" width="508" y="3" x="2" stroke-width="0" fill="#5ac4a1"/>
  <g id="icomoon-ignore"/>
  <path transform="rotate(-35.986 223.194 233.551)" stroke="null" fill="#000000" id="svg_1" d="m412.45563,318.01254c-29.09165,-45.60763 -78.99733,-65.67946 -111.46913,-44.83294c-2.80429,1.80147 -5.38085,3.8533 -7.74102,6.11959l-34.66184,-54.38654l80.03738,-126.03853c6.55091,-12.13676 8.96866,-26.59235 5.78744,-41.1302c-3.04162,-13.89622 -10.69538,-25.57694 -20.98505,-33.79999l-5.35641,-3.41738l-94.87289,148.85985l-94.87376,-148.85985l-5.35554,3.41651c-10.28965,8.22394 -17.94343,19.90377 -20.98417,33.79999c-3.18122,14.53786 -0.76345,28.99344 5.78657,41.1302l80.03825,126.03853l-34.66271,54.38654c-2.36017,-2.26629 -4.93673,-4.31899 -7.74102,-6.11959c-32.4718,-20.84652 -82.37748,-0.77469 -111.46913,44.83294c-29.08991,45.60587 -26.34931,99.4777 6.12162,120.32335c32.47093,20.8474 82.37661,0.77469 111.46826,-44.83206l71.67164,-112.8636l71.67251,112.86447c29.09165,45.60675 78.99733,65.67946 111.46826,44.83206c32.47006,-20.84652 35.21066,-74.71835 6.12074,-120.32335l-0.00001,0l0.00001,0zm-296.21013,52.84329c-13.09569,20.52877 -29.89874,30.51742 -41.25811,33.02093c-0.00174,0 -0.00174,0 -0.00174,0c-3.70386,0.81759 -8.85348,1.31741 -12.35666,-0.93137c-3.88185,-2.49213 -6.45841,-9.08091 -6.89293,-17.62784c-0.705,-13.84983 4.20643,-30.1279 13.47525,-44.65787c13.09395,-20.52965 29.89699,-30.51742 41.25375,-33.02006c3.70647,-0.8167 8.85959,-1.31741 12.3619,0.9305c3.88185,2.49213 6.45754,9.08178 6.89205,17.6261c0.70587,13.85245 -4.20556,30.12964 -13.4735,44.65963l-0.00001,0l0,-0.00001zm106.9486,-126.23899c-7.70961,0 -13.96036,-6.27103 -13.96036,-14.00564s6.25076,-14.00564 13.96036,-14.00564s13.96036,6.27103 13.96036,14.00564s-6.25076,14.00564 -13.96036,14.00564zm167.45893,140.69982c-0.43452,8.54695 -3.01108,15.13573 -6.89293,17.62784c-3.50318,2.24878 -8.65281,1.74896 -12.35666,0.93137c0,0 0,0 -0.00174,0c-11.36025,-2.50263 -28.16242,-12.49216 -41.25811,-33.02093c-9.26794,-14.52997 -14.17937,-30.80717 -13.4735,-44.65963c0.43452,-8.54432 3.0102,-15.13397 6.89205,-17.6261c3.50231,-2.24791 8.65542,-1.74721 12.3619,-0.9305c11.35763,2.50175 28.1598,12.49041 41.25375,33.02006c9.26881,14.52997 14.17937,30.80804 13.47525,44.65787l-0.00001,0l0,0.00001z"/>
 </g>
</svg>